<svg xmlns="http://www.w3.org/2000/svg" xmlns:xlink="http://www.w3.org/1999/xlink" version="1.1" width="82px" height="32px" viewBox="-0.5 -0.5 82 32"><defs/><g><path d="M 20.89 30 L 0.55 1" fill="none" stroke="#F48FB1" stroke-miterlimit="10" pointer-events="none"/><path d="M -0.18 30 L 20.16 1" fill="none" stroke="#F48FB1" stroke-miterlimit="10" pointer-events="none"/><path d="M 44.37 0.9 C 47.38 2.13 49.21 4.84 48.98 7.73 C 48.75 10.62 46.51 13.09 43.34 13.94 C 40.18 14.79 36.74 13.85 34.7 11.56" fill="none" stroke="#F48FB1" stroke-miterlimit="10" transform="rotate(-180,41,7.25)" pointer-events="none"/><path d="M 43.87 15.82 C 47.26 17.51 49.06 20.87 48.35 24.2 C 47.64 27.53 44.58 30.11 40.71 30.65 C 36.84 31.18 33.01 29.55 31.13 26.58" fill="none" stroke="#F48FB1" stroke-miterlimit="10" pointer-events="none"/><path d="M 37.5 13.55 L 44 15.85" fill="none" stroke="#F48FB1" stroke-miterlimit="10" pointer-events="none"/><path d="M 80 1 L 56 1" fill="none" stroke="#F48FB1" stroke-miterlimit="10" pointer-events="none"/><path d="M 68 31 L 68 1" fill="none" stroke="#F48FB1" stroke-miterlimit="10" pointer-events="none"/></g></svg>